PathFileType	4	(X/Y/Z)	1H_rest_med_right.trc
DataRate	CameraRate	NumFrames	NumMarkers	Units	OrigDataRate	OrigDataStartFrame	OrigNumFrames
250.00	250.00	21	18	mm	250.00	14641	29281
Frame#	Time	c7	r_should	l_should	clavicle	r_upa	r_elb_l	r_elb_m	r_low	r_wri_l	r_wri_m	r_met	l_upa	l_elb_l	l_elb_m	l_low	l_wri_l	l_wri_m	l_met
	X1	Y1	Z1	X2	Y2	Z2	X3	Y3	Z3	X4	Y4	Z4	X5	Y5	Z5	X6	Y6	Z6	X7	Y7	Z7	X8	Y8	Z8	X9	Y9	Z9	X10	Y10	Z10	X11	Y11	Z11	X12	Y12	Z12	X13	Y13	Z13	X14	Y14	Z14	X15	Y15	Z15	X16	Y16	Z16	X17	Y17	Z17	X18	Y18	Z18
14641	58.56000	629.69275	1419.97705	280.65198	695.03644	1356.07178	418.95160	661.42810	1377.73657	102.82378	756.79401	1281.18884	248.47078	701.89038	1148.68079	482.52655	700.23590	1066.61914	498.12021	681.41187	1028.23401	425.04211	844.74817	995.24762	477.50244	908.23376	983.51727	445.87616	883.77887	914.41669	447.62558	983.59027	963.62677	480.56015	650.16632	1188.58728	24.06742	662.01892	1080.44788	11.52417	611.95148	1043.47083	75.73267	698.78613	914.51691	10.62016	726.68610	840.59271	43.20887	661.46527	822.26178	14.75722	754.53937	754.83911	12.58087
14642	58.56400	629.90118	1419.97693	280.71640	695.28333	1356.01184	418.99179	661.57941	1377.75940	102.86799	756.93536	1281.14685	248.47763	702.00183	1148.63135	482.59140	700.32776	1066.50000	498.22354	681.41138	1028.13477	425.12512	844.57257	994.25604	477.52713	907.98987	982.14984	445.90161	883.15747	913.17804	447.67783	983.25098	961.92944	480.65375	650.30615	1188.65344	24.13123	662.07019	1080.48938	11.51344	612.02374	1043.54346	75.76062	698.79712	914.54657	10.58461	726.70233	840.63586	43.17156	661.47650	822.33148	14.72328	754.51239	754.85504	12.50353
14643	58.56800	630.11298	1419.98547	280.79855	695.52148	1355.95581	419.03687	661.73834	1377.78357	102.92104	757.08411	1281.10303	248.49879	702.11890	1148.58606	482.66129	700.41058	1066.36670	498.32263	681.41577	1028.03894	425.20901	844.37744	993.25635	477.57379	907.72815	980.77704	445.93741	882.51245	911.92920	447.76813	982.91431	960.25366	480.74811	650.44556	1188.72363	24.18925	662.13446	1080.53333	11.51101	612.12122	1043.61536	75.77991	698.82123	914.57776	10.55860	726.72253	840.67529	43.13942	661.50269	822.40131	14.67806	754.49371	754.87280	12.43726
14644	58.57200	630.32062	1420.00073	280.88644	695.75183	1355.90759	419.08569	661.89612	1377.80847	102.97331	757.23053	1281.06104	248.52678	702.22107	1148.52173	482.70908	700.47046	1066.22607	498.41107	681.40021	1027.94153	425.27637	844.18506	992.27240	477.61810	907.46271	979.42090	445.97491	881.85406	910.68646	447.85703	982.54767	958.53589	480.80502	650.57465	1188.79675	24.21661	662.20715	1080.58032	11.51544	612.20221	1043.66760	75.77464	698.85175	914.61084	10.53377	726.73462	840.70215	43.09927	661.52466	822.46271	14.62196	754.48035	754.89172	12.37734
14645	58.57600	630.52496	1420.01538	280.95978	695.97723	1355.86572	419.12903	662.05518	1377.83667	103.02795	757.37872	1281.02209	248.55238	702.30878	1148.44116	482.72681	700.52264	1066.07593	498.47934	681.33258	1027.82397	425.32138	843.99890	991.31915	477.66364	907.19556	978.07965	446.02066	881.19379	909.46338	447.94119	982.16724	956.82202	480.84045	650.67566	1188.84009	24.21972	662.28503	1080.62305	11.52377	612.25757	1043.70056	75.75515	698.88611	914.64752	10.50330	726.73242	840.72034	43.03504	661.52563	822.50195	14.55174	754.46960	754.91437	12.31707
14646	58.58000	630.72546	1420.02917	281.02866	696.20776	1355.82214	419.17758	662.21588	1377.85913	103.08021	757.52789	1280.99060	248.57272	702.39099	1148.35193	482.73495	700.56512	1065.90930	498.52219	681.22308	1027.67627	425.36346	843.81152	990.36420	477.69516	906.91486	976.74231	446.06561	880.53503	908.25177	448.01523	981.75586	955.07623	480.84705	650.73993	1188.84021	24.21044	662.36084	1080.66138	11.53283	612.29956	1043.71570	75.72774	698.92285	914.68201	10.46988	726.72198	840.72241	42.95549	661.51440	822.51080	14.48280	754.46472	754.93262	12.24825
14647	58.58400	630.92908	1420.03552	281.09918	696.44531	1355.77393	419.22751	662.37604	1377.87195	103.13577	757.67682	1280.95728	248.59119	702.48724	1148.26709	482.74084	700.60681	1065.74756	498.56097	681.09814	1027.52332	425.41541	843.61554	989.41461	477.72363	906.63428	975.40393	446.08292	879.87024	907.04956	448.06567	981.33667	953.33228	480.85025	650.80450	1188.84534	24.19598	662.43524	1080.69519	11.53992	612.34760	1043.70813	75.68803	698.95544	914.70959	10.42809	726.71075	840.71368	42.87383	661.49353	822.50464	14.41454	754.45990	754.94232	12.17333
14648	58.58800	631.12952	1420.03357	281.16315	696.66205	1355.72412	419.27505	662.53284	1377.88257	103.18714	757.82526	1280.92139	248.61133	702.58716	1148.19580	482.75668	700.66357	1065.60486	498.61221	680.98071	1027.38464	425.47620	843.41608	988.46600	477.77753	906.34363	974.07745	446.08844	879.21741	905.84149	448.09186	980.91864	951.61414	480.87906	650.89062	1188.86084	24.20938	662.51233	1080.71643	11.55442	612.39478	1043.70789	75.66287	698.98676	914.73260	10.39402	726.71381	840.71088	42.80736	661.47577	822.50861	14.37018	754.45007	754.95123	12.10155
14649	58.59200	631.32452	1420.03040	281.21225	696.85999	1355.67981	419.31946	662.68323	1377.89124	103.23561	757.96887	1280.89026	248.62752	702.69635	1148.14697	482.78644	700.73694	1065.49426	498.67917	680.87012	1027.26819	425.55310	843.22668	987.51208	477.81772	906.05182	972.75739	446.09570	878.57770	904.64197	448.10995	980.51965	949.90442	480.93188	651.01385	1188.88904	24.25164	662.58704	1080.73474	11.56924	612.46033	1043.73755	75.66993	699.01990	914.75433	10.36074	726.73450	840.72974	42.76226	661.47589	822.53864	14.33882	754.43695	754.96021	12.02332
14650	58.59600	631.51208	1420.03174	281.25858	697.05652	1355.64575	419.36356	662.83264	1377.90491	103.28845	758.11371	1280.85681	248.65053	702.82391	1148.12170	482.83270	700.83197	1065.41077	498.76376	680.81653	1027.19226	425.64569	843.03571	986.57855	477.85901	905.74890	971.43793	446.11917	877.96338	903.44916	448.09436	980.13086	948.25226	481.02463	651.16595	1188.93591	24.31524	662.66205	1080.76147	11.57559	612.54596	1043.78979	75.68686	699.05664	914.77399	10.32733	726.77502	840.76276	42.73062	661.50403	822.59454	14.30933	754.42902	754.96497	11.95255
14651	58.60000	631.69269	1420.03748	281.30179	697.24976	1355.62158	419.41608	662.99146	1377.92639	103.33777	758.25250	1280.82263	248.68085	702.95984	1148.11365	482.88275	700.94006	1065.33313	498.84753	680.79706	1027.14392	425.73099	842.84351	985.65253	477.90207	905.43915	970.11591	446.15118	877.31232	902.10297	448.03937	979.74847	946.60840	481.11493	651.31378	1189.00281	24.36407	662.73944	1080.79822	11.57484	612.64954	1043.87012	75.71482	699.09705	914.79700	10.29576	726.82800	840.80377	42.70246	661.54834	822.67090	14.27409	754.43042	754.97406	11.89177
14652	58.60400	631.87207	1420.04980	281.35309	697.44397	1355.59802	419.46808	663.15454	1377.95166	103.37761	758.39032	1280.79578	248.71237	703.07935	1148.10718	482.92480	701.03693	1065.25037	498.93124	680.77844	1027.10657	425.80228	842.64392	984.70654	477.94772	904.98413	968.94995	446.00696	876.63092	900.57550	447.95483	979.33588	944.97375	481.19250	651.46136	1189.07214	24.40085	662.82355	1080.84058	11.57215	612.76263	1043.95398	75.73911	699.13733	914.82855	10.25951	726.87268	840.83771	42.66776	661.59180	822.74420	14.22289	754.43573	754.99854	11.82362
14653	58.60800	632.04938	1420.06543	281.39539	697.63086	1355.58777	419.52045	663.31647	1377.98096	103.41628	758.52594	1280.76880	248.74380	703.17590	1148.08398	482.94800	701.10590	1065.15881	499.00351	680.74445	1027.06555	425.85065	842.42792	983.76709	478.01523	904.35089	967.98883	445.67664	875.73151	899.36957	448.14294	978.90295	943.30280	481.23660	651.58173	1189.12415	24.41205	662.91357	1080.88354	11.56727	612.85229	1044.01489	75.73086	699.18085	914.85663	10.22476	726.89624	840.86072	42.61469	661.63245	822.79913	14.15732	754.44580	755.02356	11.75772
14654	58.61200	632.21887	1420.07996	281.43918	697.80420	1355.57959	419.57086	663.47339	1378.01038	103.45486	758.65234	1280.73608	248.77417	703.24133	1148.03357	482.95905	701.15424	1065.03870	499.05896	680.65753	1026.98987	425.88226	842.20807	982.84210	478.08896	903.97412	966.74561	445.65833	874.41370	898.19110	448.67630	978.44977	941.61487	481.26163	651.66449	1189.14893	24.40398	663.00085	1080.92517	11.55744	612.90588	1044.04651	75.70367	699.22552	914.87640	10.19113	726.90210	840.86023	42.54432	661.65387	822.82422	14.08051	754.45532	755.03864	11.69438
14655	58.61600	632.38275	1420.08899	281.48398	697.97705	1355.56409	419.62161	663.62427	1378.02295	103.49861	758.78265	1280.70349	248.81564	703.29272	1147.97205	482.97256	701.19635	1064.89685	499.11035	680.55365	1026.88611	425.91116	841.98364	981.90204	478.15939	903.66223	965.40259	445.70776	874.02124	897.07672	448.52536	977.98779	939.89563	481.26367	651.72351	1189.15100	24.38579	663.08594	1080.95251	11.55674	612.94550	1044.03320	75.67561	699.27429	914.89307	10.16031	726.90405	840.83826	42.47907	661.66254	822.81622	14.01353	754.46631	755.04639	11.63914
14656	58.62000	632.54193	1420.08960	281.52386	698.14386	1355.54651	419.67178	663.76880	1378.02649	103.54654	758.91174	1280.67969	248.85234	703.34753	1147.91199	482.99167	701.24988	1064.74561	499.15652	680.46332	1026.77942	425.95193	841.76886	980.94928	478.22348	903.36218	964.05939	445.74344	874.28833	896.07404	447.83499	977.51404	938.17517	481.27936	651.79327	1189.15527	24.38330	663.16260	1080.97314	11.56181	612.98376	1044.01355	75.65616	699.32306	914.90796	10.14057	726.91388	840.81500	42.42222	661.66400	822.79956	13.95964	754.47913	755.05292	11.58214
14657	58.62400	632.70105	1420.08618	281.56305	698.29425	1355.52942	419.71658	663.90857	1378.02808	103.59821	759.03815	1280.67078	248.88235	703.41095	1147.87256	483.02258	701.32129	1064.61816	499.21075	680.38934	1026.68506	426.00284	841.55145	979.99854	478.29831	903.05951	962.71289	445.78024	873.59644	894.95459	447.93414	977.06982	936.49390	481.33502	651.88049	1189.16101	24.40490	663.23602	1080.99707	11.56559	613.03174	1044.02075	75.65401	699.37244	914.92700	10.11864	726.94299	840.80829	42.38730	661.67871	822.79510	13.93847	754.49756	755.05878	11.52610
14658	58.62800	632.85699	1420.08252	281.60025	698.44012	1355.51489	419.75790	664.04297	1378.03296	103.64272	759.16290	1280.67029	248.91643	703.49969	1147.85693	483.06644	701.42352	1064.51917	499.26962	680.34845	1026.61230	426.06082	841.33124	979.04596	478.37784	902.74750	961.37122	445.83115	872.69592	893.83447	448.23962	976.62109	934.84595	481.42297	651.99731	1189.18542	24.44104	663.31445	1081.01611	11.57309	613.10767	1044.05676	75.67303	699.42664	914.94897	10.09444	726.99786	840.82721	42.37193	661.71692	822.81799	13.93758	754.52173	755.06750	11.47405
14659	58.63200	633.00574	1420.09326	281.63440	698.58984	1355.49780	419.80188	664.17822	1378.04065	103.68372	759.28784	1280.66614	248.95222	703.61407	1147.85254	483.11755	701.55304	1064.43396	499.32159	680.34918	1026.55737	426.11588	841.11334	978.08081	478.45660	902.44507	960.04449	445.89871	872.91724	892.84558	447.67816	976.18579	933.21771	481.53098	652.14667	1189.23328	24.49518	663.39893	1081.03418	11.58243	613.23376	1044.11060	75.70102	699.48846	914.96826	10.06988	727.07697	840.86011	42.36416	661.77594	822.86566	13.94254	754.55005	755.07355	11.43256
14660	58.63600	633.15131	1420.11670	281.67484	698.73938	1355.47620	419.83957	664.32269	1378.04822	103.72478	759.41211	1280.65381	248.98318	703.73236	1147.84180	483.16037	701.70258	1064.34546	499.37714	680.39514	1026.50330	426.16748	840.88843	977.10626	478.54364	902.14374	958.70813	445.95142	871.69647	891.72913	448.11282	975.73602	931.59961	481.64410	652.29785	1189.28247	24.54709	663.49304	1081.05383	11.59277	613.37805	1044.16748	75.72659	699.55872	914.98645	10.05093	727.16174	840.89423	42.36340	661.84259	822.92609	13.93877	754.59192	755.08008	11.39578
14661	58.64000	633.29730	1420.14526	281.71384	698.89941	1355.45776	419.87219	664.46649	1378.06665	103.75855	759.52649	1280.64368	249.01566	703.84143	1147.82788	483.18851	701.84497	1064.25647	499.41266	680.42426	1026.45154	426.20303	840.60693	976.12103	478.52539	901.83765	957.37054	445.99384	869.13959	890.51733	449.41873	975.26538	929.96887	481.72830	652.43970	1189.32104	24.58392	663.59674	1081.08447	11.59739	613.50513	1044.21130	75.73672	699.63159	915.00476	10.03399	727.23553	840.92102	42.35232	661.91376	822.97668	13.91691	754.63794	755.09198	11.36077
